<svg xmlns="http://www.w3.org/2000/svg" width="620" height="230" viewBox="0 0 620 230" version="1.1">
	<path d="M 54.500 16.472 C 49.189 17.564, 44.324 19.311, 38.764 22.122 C 37.809 22.605, 36.319 23, 35.455 23 C 34.590 23, 34.157 23.445, 34.493 23.989 C 34.835 24.542, 34.461 24.730, 33.642 24.416 C 32.749 24.073, 31.938 24.619, 31.557 25.820 C 31.214 26.900, 30.051 28.015, 28.972 28.297 C 27.893 28.579, 26.706 29.640, 26.335 30.655 C 25.275 33.550, 21.305 37.963, 20.451 37.195 C 20.027 36.813, 19.975 37.017, 20.336 37.649 C 20.697 38.280, 19.877 39.855, 18.514 41.149 C 17.150 42.442, 16.027 44.480, 16.017 45.679 C 16.008 46.877, 15.426 48.452, 14.725 49.179 C 13.248 50.710, 12.322 70, 13.726 70 C 14.213 70, 16.161 68.846, 18.056 67.436 C 27.470 60.429, 44.058 51.475, 52.500 48.846 C 58.003 47.132, 61.636 46.443, 61.851 47.074 C 62.045 47.645, 62.715 47.409, 63.351 46.546 C 64.429 45.083, 71.694 44.239, 106.500 41.535 C 113.601 40.983, 113.544 40.997, 112.193 40.140 C 111.294 39.570, 112.856 38.416, 117.193 36.447 C 120.662 34.872, 124.015 33.619, 124.645 33.663 C 125.275 33.707, 126.871 32.788, 128.192 31.621 C 129.513 30.455, 129.898 29.950, 129.047 30.500 C 127.714 31.362, 127.683 31.266, 128.823 29.809 C 129.551 28.880, 130.788 28.365, 131.573 28.666 C 132.469 29.010, 133 28.572, 133 27.489 C 133 26.541, 134.775 23.990, 136.945 21.820 C 143.924 14.840, 144.720 14.985, 100.143 15.119 C 73.060 15.201, 58.599 15.629, 54.500 16.472 M 68.500 47.485 C 64.650 48.202, 60.233 49.286, 58.685 49.894 C 55.216 51.257, 54.713 51.274, 55.500 50 C 55.840 49.450, 55.641 49, 55.059 49 C 54.477 49, 54 49.639, 54 50.420 C 54 51.247, 51.808 52.559, 48.750 53.563 C 42.834 55.506, 34.351 59.614, 31.813 61.766 C 30.872 62.564, 29.546 62.861, 28.813 62.438 C 28.091 62.021, 27.801 62.015, 28.169 62.426 C 28.538 62.836, 27.413 64.446, 25.669 66.003 C 22.609 68.736, 22.457 69.258, 21.238 81.167 C 20.544 87.950, 19.737 97.100, 19.444 101.500 C 19.151 105.900, 18.257 118.070, 17.456 128.545 C 16.655 139.019, 16 149.271, 16 151.326 C 16 156.900, 18.291 157.113, 23.481 152.019 C 25.864 149.680, 28.234 148.027, 28.748 148.344 C 29.647 148.900, 36.762 142.355, 36.250 141.444 C 35.679 140.430, 36.205 139.345, 38.646 136.500 C 40.061 134.850, 40.906 134.175, 40.523 135 C 40.140 135.825, 40.755 135.375, 41.891 134 C 43.026 132.625, 43.966 131.076, 43.978 130.559 C 43.990 130.041, 43.292 130.491, 42.427 131.559 C 41.562 132.626, 41.870 131.588, 43.111 129.250 C 44.353 126.913, 45.677 125, 46.054 125 C 47.281 125, 49.401 115.639, 49.451 110 C 49.478 106.975, 49.936 104.188, 50.469 103.806 C 51.002 103.424, 54.698 103.111, 58.681 103.111 C 62.665 103.111, 66.850 102.615, 67.983 102.009 C 69.115 101.403, 70.485 101.182, 71.027 101.517 C 71.570 101.852, 73.343 101.180, 74.967 100.023 C 78.130 97.771, 83.399 91.085, 80.947 92.436 C 80.151 92.874, 81.188 91.628, 83.250 89.667 C 87.200 85.912, 87.475 85.297, 86.141 83.195 C 85.495 82.176, 82.100 82.008, 70.703 82.431 C 62.667 82.729, 55.396 82.706, 54.546 82.379 C 52.843 81.726, 52.446 78.461, 53.956 77.527 C 54.482 77.202, 54.672 76.309, 54.378 75.542 C 53.689 73.747, 57.080 71.553, 64.482 69.006 C 69.479 67.287, 71.774 67.084, 79.836 67.651 C 87.084 68.161, 89.140 68.035, 88.573 67.119 C 88.035 66.247, 88.606 66.089, 90.666 66.541 C 95.392 67.577, 98.941 69.161, 98.714 70.132 C 98.459 71.225, 103.685 74.648, 104.446 73.887 C 105.369 72.964, 106.653 58, 105.810 58 C 105.364 58, 105 57.357, 105 56.571 C 105 55.785, 103.538 53.595, 101.750 51.704 C 96.492 46.141, 84.132 44.572, 68.500 47.485 M 385.124 59.055 C 382.168 60.105, 379.229 61.395, 378.593 61.923 C 377.958 62.450, 376.225 63.101, 374.742 63.370 C 371.682 63.925, 365 69.954, 365 72.160 C 365 72.962, 364.324 74.491, 363.498 75.559 C 362.017 77.471, 362.003 77.471, 362.555 75.500 C 362.863 74.400, 361.979 75.525, 360.591 78 C 358.819 81.157, 358.237 83.358, 358.640 85.375 C 358.966 87.009, 358.818 88.006, 358.297 87.684 C 357.009 86.888, 357.840 98.230, 359.603 105.500 C 361.638 113.892, 365.543 119.723, 372.817 125.231 C 394.211 141.431, 423.821 134.388, 435.163 110.401 C 438.906 102.485, 439.753 93.559, 437.477 86 C 436.566 82.975, 435.749 79.530, 435.660 78.345 C 435.572 77.161, 435.142 76.412, 434.704 76.683 C 434.266 76.954, 433.226 75.448, 432.392 73.337 C 430.875 69.499, 426.144 65.387, 419.126 61.810 C 409.200 56.749, 394.885 55.589, 385.124 59.055 M 566.430 61.250 C 565.400 63.587, 563.982 65.860, 563.279 66.300 C 562.575 66.740, 562.007 67.640, 562.015 68.300 C 562.025 69.054, 562.432 68.942, 563.110 68 C 564.007 66.752, 564.089 66.808, 563.594 68.332 C 563.267 69.339, 563 70.378, 563 70.641 C 563 70.903, 562.474 70.793, 561.830 70.395 C 561.038 69.906, 560.871 70.222, 561.313 71.374 C 561.721 72.436, 561.398 73.294, 560.453 73.656 C 559.556 74, 559.165 74.946, 559.493 75.978 C 560.205 78.221, 559.135 81, 557.560 81 C 556.867 81, 556.333 82.291, 556.333 83.967 C 556.333 87.210, 553.189 95, 551.880 95 C 551.430 95, 551.306 95.634, 551.604 96.410 C 552.184 97.923, 549.882 103.006, 546.859 106.885 C 545.836 108.197, 545.007 109.772, 545.015 110.385 C 545.024 110.998, 545.467 110.825, 546 110 C 547.619 107.495, 547.134 109.152, 543.953 117 C 542.281 121.125, 539.920 125.327, 538.706 126.337 C 537.493 127.347, 537.175 127.876, 538 127.513 C 538.825 127.149, 538.626 127.560, 537.559 128.426 C 536.491 129.292, 535.254 130, 534.809 130 C 534.364 130, 534 130.466, 534 131.036 C 534 132.399, 552.940 131.870, 553.198 130.500 C 553.302 129.950, 552.068 129.272, 550.456 128.992 C 548.843 128.713, 547.398 127.813, 547.243 126.992 C 546.882 125.085, 550.230 115.536, 551.333 115.326 C 551.792 115.238, 552.467 114.832, 552.833 114.423 C 553.200 114.014, 552.938 114.003, 552.250 114.399 C 551.563 114.794, 551 114.674, 551 114.130 C 551 113.587, 551.563 112.548, 552.250 111.821 C 552.938 111.095, 553.525 110.050, 553.556 109.500 C 553.781 105.460, 555.389 102.994, 557.858 102.900 C 560.500 102.801, 560.500 102.801, 558 102 C 556.401 101.488, 559.465 101.169, 566.500 101.115 C 572.988 101.065, 576.944 101.383, 576.143 101.890 C 575.197 102.490, 575.122 102.957, 575.893 103.434 C 576.502 103.810, 577.018 103.754, 577.040 103.309 C 577.197 100.129, 584.085 118.283, 584.511 123 C 584.635 124.375, 584.908 126.135, 585.118 126.911 C 585.344 127.746, 584.509 128.575, 583.074 128.939 C 581.740 129.278, 580.465 130.105, 580.241 130.778 C 579.933 131.700, 583.070 132, 593 132 C 602.930 132, 606.067 131.700, 605.759 130.778 C 605.535 130.105, 604.273 129.301, 602.956 128.989 C 600.518 128.414, 597.890 123.026, 590.523 103.500 C 589.071 99.650, 586.990 94.349, 585.901 91.720 C 584.811 89.091, 584.157 86.555, 584.448 86.084 C 584.740 85.612, 584.360 84.714, 583.605 84.087 C 581.990 82.747, 576.183 68.268, 576.272 65.805 C 576.361 63.347, 571.777 57.015, 569.902 57.007 C 568.979 57.003, 567.512 58.795, 566.430 61.250 M 127.750 58.746 C 121.723 58.926, 117 59.492, 117 60.034 C 117 60.565, 117.702 61, 118.559 61 C 119.483 61, 119.827 61.470, 119.405 62.155 C 118.953 62.885, 119.131 63.037, 119.889 62.568 C 120.548 62.161, 121.743 62.372, 122.544 63.036 C 123.762 64.047, 124 69.356, 124 95.500 C 124 128.100, 123.975 128.294, 119.697 129.142 C 118.706 129.339, 117.917 129.950, 117.944 130.500 C 117.973 131.095, 123.089 131.614, 130.590 131.781 C 140.478 132.001, 143.095 131.786, 142.761 130.781 C 142.526 130.076, 141.472 129.350, 140.417 129.166 C 136.177 128.426, 136 127.056, 136 95.009 C 136 63.798, 136.281 61.403, 139.786 62.748 C 140.798 63.137, 141.080 62.938, 140.605 62.170 C 140.171 61.468, 140.505 61, 141.441 61 C 142.298 61, 143 60.598, 143 60.107 C 143 59.172, 140.319 57.846, 139.168 58.212 C 138.801 58.329, 133.662 58.569, 127.750 58.746 M 213.235 59.992 C 213.394 60.813, 214.869 61.729, 216.512 62.027 C 218.540 62.395, 219.455 63.120, 219.361 64.284 C 219.285 65.228, 219.672 66, 220.221 66 C 220.837 66, 221.018 68.486, 220.693 72.493 C 220.404 76.063, 220.579 79.240, 221.083 79.552 C 221.588 79.863, 221.964 87.629, 221.921 96.809 C 221.878 105.989, 221.586 112.850, 221.273 112.056 C 220.960 111.261, 217.620 107.570, 213.852 103.854 C 210.083 100.137, 207 96.363, 207 95.466 C 207 93.843, 204.213 90.637, 192.186 78.426 C 188.408 74.591, 186.161 71.549, 186.591 70.853 C 187.020 70.158, 186.874 69.960, 186.227 70.360 C 185.631 70.728, 184.856 70.123, 184.505 69.015 C 184.153 67.907, 183.476 67, 183 67 C 182.524 67, 181.838 66.066, 181.476 64.925 C 181.114 63.783, 180.574 63.093, 180.276 63.391 C 179.978 63.689, 178.862 62.822, 177.795 61.466 C 175.991 59.174, 175.226 59, 166.927 59 C 158.416 59, 155.935 59.882, 159.750 61.552 C 160.713 61.973, 161.933 62.214, 162.462 62.088 C 162.991 61.962, 164.003 62.652, 164.712 63.621 C 165.691 64.960, 165.986 71.869, 165.942 92.441 C 165.873 125.152, 165.635 126.996, 161.246 128.930 C 159.461 129.717, 158 130.730, 158 131.180 C 158 132.347, 177.758 132.201, 178.482 131.029 C 178.812 130.495, 177.928 129.769, 176.518 129.415 C 171.221 128.086, 170.987 126.760, 171.150 99.027 C 171.233 84.987, 171.595 75.525, 171.954 78 C 172.540 82.035, 172.654 82.190, 173.054 79.500 C 173.299 77.850, 173.950 76.524, 174.500 76.553 C 176.145 76.641, 187.933 91.293, 187.281 92.440 C 186.950 93.023, 187.021 93.193, 187.439 92.817 C 187.857 92.442, 190.493 94.917, 193.296 98.317 C 196.100 101.718, 198.655 104.725, 198.973 105 C 201.520 107.199, 210.022 117.944, 209.792 118.673 C 209.464 119.710, 214.462 126, 215.614 126 C 216.023 126, 217.834 127.612, 219.638 129.581 C 221.603 131.726, 223.637 133.024, 224.709 132.819 C 226.376 132.499, 226.535 130.151, 227 98.987 C 227.380 73.537, 227.818 65.020, 228.826 63.500 C 229.947 61.808, 230.063 61.781, 229.579 63.323 C 229.089 64.885, 229.421 64.813, 231.890 62.823 C 233.476 61.546, 234.487 60.192, 234.137 59.815 C 233.786 59.438, 228.875 58.988, 223.223 58.815 C 214.537 58.549, 212.990 58.731, 213.235 59.992 M 256 59.759 C 256 60.958, 259.981 63.130, 261.011 62.493 C 261.523 62.177, 262.183 62.949, 262.479 64.209 C 263.424 68.234, 262.490 126.913, 261.466 127.887 C 260.935 128.392, 259.632 128.962, 258.571 129.153 C 257.510 129.344, 256.610 129.950, 256.571 130.500 C 256.527 131.127, 263.917 131.601, 276.391 131.772 C 298.619 132.075, 304.519 131.156, 313.743 125.950 C 316.634 124.318, 319 123.290, 319 123.666 C 319 124.041, 320.105 123.310, 321.456 122.042 C 322.806 120.773, 323.833 119.457, 323.736 119.117 C 323.422 118.012, 330.236 105.028, 330.911 105.445 C 331.271 105.668, 331.551 101.609, 331.533 96.425 C 331.515 91.242, 331.114 87, 330.643 87 C 330.172 87, 330.069 86.262, 330.416 85.359 C 331.275 83.119, 330.112 79.813, 328.758 80.650 C 328.053 81.085, 327.889 80.733, 328.299 79.664 C 328.650 78.749, 328.555 78, 328.087 78 C 327.620 78, 325.977 76.348, 324.437 74.329 C 322.897 72.310, 322.169 70.986, 322.819 71.388 C 323.468 71.789, 324 71.819, 324 71.453 C 324 70.604, 318.606 66.331, 318.379 67 C 318.286 67.275, 317.241 66.623, 316.057 65.552 C 314.873 64.480, 313.363 63.500, 312.702 63.373 C 312.041 63.246, 308.924 62.211, 305.775 61.071 C 300.636 59.212, 297.794 59, 278.025 59 C 265.911 59, 256 59.342, 256 59.759 M 461 59.802 C 461 60.302, 462.462 61.130, 464.250 61.642 C 467.500 62.574, 467.500 62.574, 467.780 93.037 C 467.934 109.792, 467.805 124.541, 467.495 125.814 C 467.154 127.210, 465.752 128.539, 463.965 129.162 C 458.153 131.188, 461.191 132, 474.583 132 C 484.461 132, 488.061 131.683, 487.779 130.837 C 487.566 130.198, 486.606 129.559, 485.646 129.419 C 482.103 128.899, 481.488 127.312, 481.543 118.831 C 481.662 100.400, 481.725 100, 484.492 100 C 485.863 100, 488.156 101.013, 489.588 102.250 C 492.239 104.542, 495.578 109.891, 495.206 111.250 C 495.093 111.662, 495.377 112, 495.837 112 C 496.297 112, 498.868 115.263, 501.549 119.250 C 510.222 132.146, 510.007 132, 520.270 132 C 526.940 132, 529.064 131.687, 528.755 130.750 C 528.529 130.063, 527.413 129.362, 526.276 129.194 C 523.766 128.823, 520.532 125.436, 520.513 123.160 C 520.506 122.247, 520.050 121.571, 519.500 121.658 C 518.950 121.745, 516.250 118.683, 513.500 114.853 C 510.750 111.022, 506.623 105.562, 504.329 102.719 C 500.157 97.550, 500.157 97.550, 504.829 95.687 C 507.398 94.662, 510.043 93.788, 510.706 93.745 C 511.369 93.702, 511.717 93.352, 511.480 92.967 C 511.242 92.582, 512.002 91.420, 513.169 90.384 C 516.760 87.196, 519.140 80.599, 518.626 75.261 C 517.977 68.527, 517.623 67.965, 511.229 63.500 C 505.500 59.500, 505.500 59.500, 483.250 59.197 C 470.355 59.021, 461 59.276, 461 59.802 M 394 61.906 C 394 62.405, 393.153 62.591, 392.117 62.320 C 389.511 61.639, 385.153 64.118, 381 68.643 C 379.075 70.741, 378.594 71.567, 379.931 70.479 C 382.363 68.500, 382.363 68.500, 380.431 71.157 C 379.369 72.618, 378.074 73.743, 377.554 73.657 C 377.034 73.571, 375.598 76.200, 374.364 79.500 C 371.247 87.831, 371.089 101.830, 374.050 107.355 C 375.178 109.459, 375.629 110.889, 375.053 110.533 C 373.481 109.561, 375.429 114.180, 378.632 119.021 C 383.611 126.544, 393.477 130.205, 404.370 128.572 C 413.022 127.274, 422.287 115.121, 424.031 102.779 C 425.128 95.018, 423.591 79.905, 421.553 78.415 C 420.716 77.803, 420.324 77.009, 420.682 76.651 C 421.040 76.293, 420.824 76, 420.202 76 C 419.580 76, 418.560 75.046, 417.935 73.879 C 417.051 72.227, 417.073 71.927, 418.036 72.522 C 418.715 72.942, 418.204 71.843, 416.900 70.079 C 412.840 64.587, 408.709 62.695, 401.152 62.866 C 396.450 62.972, 394.940 62.725, 396 62.024 C 397.285 61.173, 397.250 61.028, 395.750 61.015 C 394.788 61.007, 394 61.408, 394 61.906 M 275.836 84.250 C 275.651 95.938, 275.652 110.563, 275.838 116.750 C 276.177 128, 276.177 128, 284.578 128 C 290.496 128, 294.501 127.422, 298.129 126.043 C 303.439 124.025, 308.308 120.308, 307.453 118.924 C 307.186 118.492, 307.494 117.813, 308.138 117.415 C 308.939 116.920, 309.041 117.135, 308.463 118.095 C 307.743 119.289, 307.869 119.295, 309.297 118.137 C 310.222 117.387, 310.731 116.374, 310.430 115.887 C 310.129 115.399, 310.375 115, 310.977 115 C 311.579 115, 313.026 112.862, 314.193 110.250 C 317.602 102.617, 317.356 80, 313.863 80 C 313.324 80, 313.160 79.550, 313.500 79 C 313.840 78.450, 313.657 78, 313.094 78 C 312.531 78, 311.560 77.046, 310.935 75.879 C 310.021 74.171, 310.063 73.891, 311.150 74.440 C 311.893 74.815, 311.439 74.307, 310.142 73.311 C 308.845 72.315, 305.992 69.861, 303.802 67.857 C 299.152 63.604, 296.811 63, 284.961 63 C 276.172 63, 276.172 63, 275.836 84.250 M 481.419 76.750 C 481.463 84.313, 481.899 91.119, 482.387 91.876 C 483.038 92.887, 484.700 93.104, 488.652 92.696 C 492.383 92.311, 493.825 92.473, 493.361 93.225 C 492.992 93.821, 493.098 94.106, 493.595 93.857 C 494.093 93.609, 495.746 92.784, 497.269 92.024 C 499.253 91.034, 499.678 90.413, 498.769 89.836 C 497.898 89.283, 498.169 89.026, 499.636 89.015 C 502.215 88.997, 505.572 82.781, 504.409 80.180 C 503.373 77.867, 503.232 74.025, 504.204 74.626 C 505.459 75.401, 505.135 73.163, 503.551 70.099 C 501.904 66.914, 497.428 63.618, 495.972 64.517 C 495.437 64.848, 495 64.641, 495 64.059 C 495 63.417, 492.310 63, 488.169 63 C 481.337 63, 481.337 63, 481.419 76.750 M 228.232 73 C 228.232 74.925, 228.438 75.713, 228.689 74.750 C 228.941 73.787, 228.941 72.213, 228.689 71.250 C 228.438 70.287, 228.232 71.075, 228.232 73 M 466.320 79 C 466.320 82.575, 466.502 84.037, 466.723 82.250 C 466.945 80.463, 466.945 77.537, 466.723 75.750 C 466.502 73.963, 466.320 75.425, 466.320 79 M 566.585 74.862 C 566.199 75.488, 566.160 76.450, 566.500 77 C 566.840 77.550, 566.714 78, 566.220 78 C 564.777 78, 562.891 83.035, 563.460 85.365 C 563.747 86.539, 563.708 86.893, 563.375 86.152 C 562.990 85.298, 562.077 86.346, 560.884 89.011 C 558.823 93.614, 558.393 96.387, 560.110 94 C 561.007 92.752, 561.089 92.808, 560.594 94.332 C 560.267 95.339, 560 96.378, 560 96.641 C 560 96.903, 559.480 96.797, 558.845 96.405 C 558.130 95.962, 557.962 96.130, 558.405 96.845 C 559.318 98.323, 573.632 98.404, 574.539 96.937 C 574.900 96.352, 574.466 95.067, 573.574 94.082 C 572.682 93.096, 572.195 91.656, 572.492 90.882 C 573.219 88.986, 567.479 73.416, 566.585 74.862 M 137.300 90 C 137.300 93.025, 137.487 94.263, 137.716 92.750 C 137.945 91.237, 137.945 88.763, 137.716 87.250 C 137.487 85.737, 137.300 86.975, 137.300 90 M 228.252 88.500 C 228.263 90.700, 228.468 91.482, 228.707 90.238 C 228.946 88.994, 228.937 87.194, 228.687 86.238 C 228.437 85.282, 228.241 86.300, 228.252 88.500 M 482.250 98.689 C 483.212 98.941, 484.788 98.941, 485.750 98.689 C 486.712 98.438, 485.925 98.232, 484 98.232 C 482.075 98.232, 481.288 98.438, 482.250 98.689 M 313.250 152.706 C 312.012 152.944, 311 153.558, 311 154.070 C 311 154.581, 310.663 154.947, 310.250 154.882 C 307.219 154.403, 303 158.073, 303 161.189 C 303 162.185, 302.887 163.087, 302.750 163.194 C 302.526 163.368, 254.953 164.609, 228 165.143 C 217.868 165.344, 207.300 165.268, 200 164.941 C 198.075 164.855, 196.050 164.824, 195.500 164.871 C 187.070 165.598, 175.043 165.839, 135 166.083 C 108.875 166.242, 83.675 166.651, 79 166.991 C 74.325 167.331, 97.050 167.831, 129.500 168.101 C 197.267 168.665, 261.581 169.764, 264.500 170.407 C 265.600 170.649, 274.488 170.881, 284.250 170.923 C 296.109 170.975, 302 171.354, 302 172.067 C 302 174.056, 307.286 180.077, 308.898 179.923 C 309.779 179.839, 310.837 179.859, 311.250 179.968 C 313.047 180.444, 318.833 180.240, 322.736 179.563 C 325.065 179.159, 327.227 178.887, 327.539 178.958 C 327.851 179.030, 329.545 177.291, 331.303 175.096 C 334.500 171.103, 334.500 171.103, 354.500 171.005 C 379.366 170.882, 406.030 170.066, 416.311 169.112 C 420.607 168.714, 424.299 168.674, 424.515 169.024 C 425.028 169.854, 450.194 170, 451.500 169.180 C 452.952 168.269, 449.800 168.332, 512 167.966 C 543.625 167.780, 565.675 167.352, 561 167.015 C 556.325 166.678, 525.088 166.305, 491.585 166.187 C 448.782 166.035, 430.273 165.642, 429.335 164.863 C 428.336 164.034, 428 164.088, 428 165.078 C 428 166.106, 427.733 166.133, 426.800 165.200 C 425.390 163.790, 422.616 163.570, 423.460 164.935 C 423.808 165.498, 420.942 165.708, 416.269 165.462 C 411.996 165.238, 392.750 164.810, 373.500 164.511 C 354.250 164.213, 337.102 163.742, 335.392 163.466 C 332.659 163.023, 332.345 162.645, 332.787 160.333 C 333.158 158.394, 332.959 157.907, 332.033 158.479 C 331.342 158.907, 330.489 158.839, 330.138 158.330 C 329.787 157.821, 327.395 156.188, 324.822 154.702 C 320.343 152.115, 318.219 151.749, 313.250 152.706 M 305 187.168 C 301.970 188.297, 292 197.920, 292 199.716 C 292 200.422, 291.550 201, 291 201 C 290.450 201, 290 202.377, 290 204.059 C 290 205.844, 290.417 206.861, 291 206.500 C 291.550 206.160, 292.011 206.471, 292.025 207.191 C 292.038 207.911, 294.685 211.291, 297.906 214.702 C 301.128 218.112, 303.574 221.093, 303.342 221.325 C 303.110 221.556, 304.730 221.415, 306.942 221.011 C 311.354 220.204, 311.643 220.006, 320.268 211.902 C 325.760 206.742, 326.171 206.057, 325.531 203.143 C 325.150 201.405, 324.455 200.219, 323.988 200.508 C 323.520 200.796, 322.813 200.506, 322.415 199.862 C 321.963 199.131, 322.124 198.959, 322.845 199.405 C 323.499 199.808, 324 199.536, 324 198.777 C 324 196.529, 329.151 196.793, 331.681 199.170 C 332.957 200.368, 334 200.975, 334 200.519 C 334 200.063, 334.900 200.505, 336 201.500 C 338.811 204.044, 338.524 205.298, 334.303 208.903 C 329.987 212.590, 326.403 213.733, 323.953 212.203 C 322.592 211.353, 321.848 211.511, 320.570 212.923 C 319.033 214.621, 319.153 214.927, 322.501 217.866 C 326.432 221.318, 327.533 221.554, 331.685 219.834 C 333.233 219.192, 334.815 218.630, 335.200 218.584 C 336.234 218.460, 338.534 216, 337.615 216 C 337.183 216, 338.610 213.978, 340.785 211.507 C 343.920 207.945, 344.665 206.377, 344.381 203.939 C 343.918 199.960, 343.324 198.972, 338.097 193.488 C 333.138 188.285, 328.682 185.646, 326.200 186.442 C 324.320 187.046, 318.900 191.470, 319.268 192.101 C 319.395 192.320, 319.316 192.391, 319.092 192.259 C 318.166 191.711, 316.072 194.307, 316.666 195.268 C 317.019 195.840, 316.858 196.030, 316.308 195.690 C 315.757 195.350, 314.028 196.405, 312.466 198.036 C 310.904 199.666, 310.025 201, 310.513 201 C 311.001 201, 310.860 201.540, 310.200 202.200 C 308.391 204.009, 308.759 206.789, 310.897 207.467 C 313.459 208.281, 312.563 211.362, 309.252 213.126 C 307.217 214.210, 306.584 214.235, 306.251 213.244 C 306.019 212.553, 305.463 212.214, 305.015 212.491 C 303.835 213.220, 298 206.258, 298 204.120 C 298 202.142, 300.963 199, 302.829 199 C 303.473 199, 304 198.599, 304 198.109 C 304 197.620, 305.543 197.039, 307.430 196.818 C 309.316 196.598, 310.640 196.774, 310.371 197.209 C 309.238 199.041, 311.839 197.800, 314.039 195.458 C 316.428 192.916, 316.428 192.916, 313.464 190.445 C 308.855 186.601, 307.710 186.158, 305 187.168 M 82.895 194.439 C 82.653 194.680, 80.216 195.039, 77.478 195.236 C 74.276 195.467, 72.589 196.024, 72.750 196.798 C 72.888 197.459, 72.373 198, 71.607 198 C 69.685 198, 69.167 199.806, 69.590 205.034 C 70.337 214.253, 80.254 218.302, 86.894 212.099 C 89.358 209.797, 90 208.379, 90 205.234 C 90 200.971, 86.968 196, 84.368 196 C 83.551 196, 83.160 195.550, 83.500 195 C 84.121 193.996, 83.714 193.619, 82.895 194.439 M 377.250 195.487 C 376.012 196.030, 375 197.069, 375 197.796 C 375 198.523, 374.588 198.864, 374.085 198.553 C 373.582 198.242, 372.751 199.228, 372.238 200.744 C 371.229 203.728, 372.308 208.367, 374.644 211.081 C 375.392 211.951, 375.666 213.035, 375.252 213.491 C 374.838 213.948, 375.063 213.997, 375.750 213.601 C 376.438 213.206, 377 213.385, 377 214 C 377 214.615, 377.419 214.859, 377.931 214.543 C 378.443 214.226, 379.100 214.354, 379.392 214.826 C 380.399 216.454, 387.760 215.240, 389.910 213.090 C 391.059 211.941, 392 210.550, 392 210 C 392 209.450, 392.337 209, 392.750 209 C 393.163 209.001, 393.464 206.968, 393.420 204.483 C 393.342 200.067, 390.763 196, 388.042 196 C 387.469 196, 387 195.595, 387 195.100 C 387 193.936, 380.167 194.207, 377.250 195.487 M 579.079 194.999 C 574.609 195.654, 573.989 197.752, 577.868 199.104 C 580.839 200.140, 580.923 200.346, 581.208 207.323 C 581.448 213.204, 581.812 214.538, 583.250 214.813 C 584.799 215.108, 585 214.226, 585 207.137 C 585 199.127, 585 199.127, 588.250 198.813 C 590.333 198.613, 591.500 197.961, 591.500 197 C 591.500 195.281, 584.667 194.180, 579.079 194.999 M 44.529 197.750 C 45.398 199.262, 47.202 202.300, 48.538 204.500 C 49.921 206.778, 50.974 210.074, 50.984 212.156 C 50.998 215.317, 51.271 215.742, 53 215.290 C 54.620 214.866, 55 213.926, 55 210.338 C 55 207.101, 55.605 205.283, 57.250 203.583 C 58.487 202.304, 59.667 200.637, 59.872 199.879 C 60.076 199.120, 60.466 197.713, 60.739 196.750 C 61.724 193.263, 58.166 195.028, 55.402 199.397 C 52.621 203.793, 52.621 203.793, 49.832 199.397 C 48.021 196.540, 46.327 195, 44.996 195 C 43.046 195, 43.024 195.131, 44.529 197.750 M 101 201.540 C 101 208.370, 104.046 216.707, 106.082 215.449 C 106.635 215.107, 107.743 215.372, 108.544 216.036 C 109.569 216.887, 110 216.913, 110 216.122 C 110 215.505, 110.907 215, 112.015 215 C 115.603 215, 118.077 209.417, 117.769 202.010 C 117.551 196.753, 117.168 195.457, 115.750 195.187 C 114.219 194.895, 114 195.724, 114 201.804 C 114 209.584, 112.887 211.347, 108.310 210.822 C 105.529 210.503, 105.497 210.421, 105.208 202.750 C 104.947 195.822, 104.708 195, 102.958 195 C 101.214 195, 101 195.714, 101 201.540 M 130.214 204.750 C 130.445 212.623, 130.789 214.500, 132 214.500 C 132.893 214.500, 133.628 213.387, 133.816 211.750 C 134.264 207.857, 138.146 207.992, 141 212 C 142.175 213.650, 143.556 215, 144.068 215 C 145.597 215, 145.124 211.347, 143.410 209.925 C 141.958 208.720, 141.957 208.504, 143.406 207.445 C 144.279 206.807, 145.270 204.900, 145.608 203.209 C 146.100 200.751, 145.707 199.617, 143.657 197.566 C 141.515 195.424, 140.168 195, 135.509 195 C 129.928 195, 129.928 195, 130.214 204.750 M 172.477 196.198 C 172.167 197.006, 172.046 201.455, 172.207 206.084 C 172.500 214.500, 172.500 214.500, 178.211 214.799 C 183.478 215.074, 184.201 214.840, 187.492 211.799 C 192.239 207.411, 192.767 203.343, 189.152 199.013 C 186.751 196.137, 185.786 195.753, 179.759 195.269 C 174.417 194.840, 172.926 195.030, 172.477 196.198 M 200.232 198 C 200.232 199.925, 200.438 200.713, 200.689 199.750 C 200.941 198.787, 200.941 197.213, 200.689 196.250 C 200.438 195.287, 200.232 196.075, 200.232 198 M 202 204.858 C 202 214.807, 202 214.807, 206.750 215.153 C 213.840 215.671, 216 215.152, 216 212.930 C 216 211.254, 215.266 211, 210.430 211 C 205.227 211, 204.882 210.852, 205.180 208.750 C 205.445 206.889, 206.279 206.413, 210 206 C 215.695 205.367, 215.852 203.598, 210.250 203.193 C 206.860 202.947, 206 202.503, 206 200.997 C 206 199.455, 206.868 199.054, 210.750 198.805 C 214.170 198.585, 215.500 198.080, 215.500 197 C 215.500 195.844, 213.952 195.432, 208.750 195.204 C 202 194.909, 202 194.909, 202 204.858 M 231.804 196.915 C 230.902 197.969, 230.363 199.029, 230.605 199.272 C 230.847 199.514, 229.685 202.744, 228.023 206.449 C 226.360 210.155, 225 213.594, 225 214.093 C 225 216.029, 228.101 214.872, 229.164 212.539 C 230.137 210.405, 230.879 210.105, 234.773 210.279 C 238.355 210.438, 239.469 210.935, 240.291 212.739 C 241.836 216.130, 244.416 215.733, 243.469 212.250 C 243.058 210.738, 242.756 208.713, 242.798 207.750 C 242.841 206.787, 242.406 206, 241.831 206 C 241.256 206, 241.058 205.292, 241.389 204.428 C 242.077 202.637, 240.738 199.738, 237.924 196.924 C 235.494 194.494, 233.880 194.492, 231.804 196.915 M 254.747 195.750 C 254.542 196.162, 254.560 200.662, 254.787 205.750 C 255.199 215, 255.199 215, 258.349 215.128 C 260.082 215.198, 262.622 215.367, 263.994 215.503 C 267.518 215.853, 269 215.080, 269 212.893 C 269 211.265, 268.230 211, 263.500 211 C 258 211, 258 211, 258.024 207.250 C 258.037 205.188, 258.433 201.840, 258.905 199.811 C 259.575 196.925, 259.444 196, 258.299 195.561 C 256.308 194.797, 255.189 194.857, 254.747 195.750 M 406.090 203.193 C 406.287 210.678, 406.531 211.569, 408.903 213.494 C 412.159 216.135, 417.111 216.033, 420.880 213.247 C 423.506 211.305, 423.685 210.708, 423.698 203.837 C 423.711 196.736, 423.052 195.050, 420.250 195.015 C 419.371 195.005, 419 197.018, 419 201.800 C 419 208.997, 418.020 211, 414.500 211 C 410.980 211, 410 208.997, 410 201.800 C 410 195.597, 409.819 195, 407.936 195 C 406.002 195, 405.886 195.513, 406.090 203.193 M 437 205 C 437 214.333, 437.133 215, 439 215 C 440.556 215, 441 214.333, 441 212 C 441 207.808, 444.817 207.812, 447.203 212.006 C 448.225 213.801, 449.727 215, 450.953 215 C 453.388 215, 453.430 214.732, 451.562 211.120 C 450.257 208.596, 450.299 208.188, 452.024 206.711 C 453.650 205.320, 453.769 204.606, 452.850 201.792 C 451.184 196.690, 448.580 195, 442.389 195 C 437 195, 437 195, 437 205 M 484 205 C 484 214.333, 484.133 215, 486 215 C 487.606 215, 488 214.333, 488 211.617 C 488 208.083, 489.521 207.045, 494.750 207.014 C 496.711 207.002, 497 207.514, 497 211 C 497 214.333, 497.333 215, 499 215 C 500.795 215, 501 214.333, 501 208.500 C 501 204.925, 501.422 202, 501.938 202 C 503.124 202, 502.956 197.909, 501.701 196.250 C 501.181 195.563, 499.910 195, 498.878 195 C 497.354 195, 497 195.754, 497 199 C 497 202.982, 496.982 203, 493.107 203 C 488.989 203, 488 201.919, 488 197.418 C 488 195.667, 487.449 195, 486 195 C 484.133 195, 484 195.667, 484 205 M 515.004 201.750 C 515.007 206.749, 515.530 209.356, 517.020 211.801 C 518.938 214.947, 519.289 215.091, 524.512 214.880 C 527.526 214.758, 529.784 214.451, 529.531 214.198 C 529.278 213.944, 529.730 212.796, 530.535 211.646 C 531.496 210.275, 532 207.050, 532 202.277 C 532 195.667, 531.817 195, 530 195 C 528.196 195, 528 195.667, 528 201.800 C 528 209.081, 527.027 211, 523.335 211 C 520.220 211, 519 208.205, 519 201.066 C 519 195.667, 518.780 195, 517 195 C 515.197 195, 515 195.665, 515.004 201.750 M 546.820 196.628 C 546.644 197.505, 546.646 201.997, 546.823 206.611 C 547.067 212.917, 547.489 215, 548.526 215 C 549.515 215, 549.989 213.270, 550.202 208.875 C 550.500 202.750, 550.500 202.750, 555.249 208.875 C 562.084 217.691, 563 217.233, 563 205 C 563 197.119, 562.705 195, 561.607 195 C 559.754 195, 559 197.216, 559 202.659 C 559 207.153, 559 207.153, 556.474 204.152 C 555.085 202.500, 553.500 199.863, 552.952 198.291 C 551.820 195.044, 547.380 193.839, 546.820 196.628 M 77 200.059 C 77 200.641, 76.618 200.882, 76.151 200.593 C 74.983 199.871, 72.723 204.331, 73.151 206.513 C 73.343 207.489, 74.734 209.208, 76.242 210.333 C 78.868 212.292, 79.131 212.308, 82.492 210.705 C 85.500 209.271, 86 208.541, 86 205.588 C 86 203.693, 85.293 201.436, 84.429 200.571 C 82.667 198.810, 77 198.419, 77 200.059 M 134 201.793 C 134 204.511, 134.251 204.700, 137.750 204.603 C 141.056 204.512, 141.500 204.204, 141.500 202 C 141.500 199.833, 141.001 199.459, 137.750 199.190 C 134.204 198.896, 134 199.038, 134 201.793 M 176 204.784 C 176 210.716, 176 210.716, 180.210 210.608 C 183.706 210.518, 184.681 210.034, 185.960 207.750 C 187.340 205.285, 187.342 204.718, 185.979 202.280 C 184.767 200.114, 183.598 199.489, 180.229 199.206 C 176 198.852, 176 198.852, 176 204.784 M 379.529 200.909 C 379.164 202.059, 378.446 203, 377.933 203 C 376.131 203, 377.023 207.944, 379.189 209.961 C 381.972 212.554, 383.379 212.527, 386.492 209.820 C 389.266 207.408, 389.831 203.256, 387.506 202.364 C 386.684 202.048, 386.214 201.463, 386.462 201.062 C 386.709 200.661, 386.369 200.291, 385.706 200.239 C 385.043 200.187, 383.531 199.846, 382.346 199.481 C 380.707 198.976, 380.034 199.317, 379.529 200.909 M 441 202 C 441 204.752, 441.284 205, 444.441 205 C 448.315 205, 449.422 203.905, 448.497 200.991 C 448.028 199.512, 446.982 199, 444.433 199 C 441.285 199, 441 199.249, 441 202 M 233.184 203.496 C 232.176 205.707, 232.273 206, 234.015 206 C 235.414 206, 235.900 205.426, 235.686 204.026 C 235.215 200.941, 234.424 200.774, 233.184 203.496" stroke="none" fill="#000000" fill-rule="evenodd"/>
</svg>